PathFileType	4	(X/Y/Z)	35_2_7_p0_0-328_filt_butterworth.trc
DataRate	CameraRate	NumFrames	NumMarkers	Units	OrigDataRate	OrigDataStartFrame	OrigNumFrames
56.0	56.0	7	27	m	56.0	0	328
Frame#	Time	RHip			RKnee			RAnkle			RBigToe			RSmallToe			RHeel			LHip			LKnee			LAnkle			LBigToe			LSmallToe			LHeel			Neck			Head			Nose			RShoulder			RElbow			RWrist			RThumb			RIndex			RPinky			LShoulder			LElbow			LWrist			LThumb			LIndex			LPinky			
		X1	Y1	Z1	X2	Y2	Z2	X3	Y3	Z3	X4	Y4	Z4	X5	Y5	Z5	X6	Y6	Z6	X7	Y7	Z7	X8	Y8	Z8	X9	Y9	Z9	X10	Y10	Z10	X11	Y11	Z11	X12	Y12	Z12	X13	Y13	Z13	X14	Y14	Z14	X15	Y15	Z15	X16	Y16	Z16	X17	Y17	Z17	X18	Y18	Z18	X19	Y19	Z19	X20	Y20	Z20	X21	Y21	Z21	X22	Y22	Z22	X23	Y23	Z23	X24	Y24	Z24	X25	Y25	Z25	X26	Y26	Z26	X27	Y27	Z27	
0	0.0	0.37410715479292467	0.4496744533413757	0.8438948721653659	0.36092278300646036	-0.00962023008523838	0.9346426945912274	0.3737965515435798	-0.4299506121325078	1.0237918424206913	0.34647209429438397	-0.4639324804772727	0.8532716369508707	0.41600299930693246	-0.4648072021115536	0.8797997383053158	0.3541173627008661	-0.5071395075761204	1.128233815800427	0.1588126435147144	0.42696508466712296	0.9160402240279752	0.1619316485598009	-0.013402727760393474	0.980718921208892	0.1800970695718604	-0.42154875885838805	1.0398307684453165	0.19481040254461351	-0.44884895143337106	0.8476569312822669	0.14019731353918682	-0.45563629659117105	0.8872755312210535	0.19516286177098524	-0.4934895057236111	1.097396249873057	0.2788766197584455	1.001102330881734	0.9094428668008442	0.2743803412361919	1.25978239453046	0.8344687070868633	0.26373100412092015	1.134805996947106	0.7503443268775498	0.4418110299270422	0.9146578417938884	0.8728404431463919	0.454090023160349	0.6531193725022332	0.7799593996390477	0.29443540138750207	0.5037863762464956	0.6252511154277673	0.2197203215771889	0.4352356572721141	0.5993202062988795	0.21341610392989982	0.41702388111888533	0.6245094455787219	0.23966934817924773	0.4053952795061113	0.6022100997051758	0.10847474948580486	0.9178566810164178	0.8870946530469492	0.09857574922321193	0.6581052645928243	0.8213072961427421	0.2005407472583492	0.5003993590085578	0.6459968599580892	0.2625106498544672	0.4373946973873498	0.5726936833976082	0.26618576993307	0.40326629143247916	0.5784902284681726	0.22629458922435916	0.4088375709830844	0.6046663295048578	
1	0.0178571428571428	0.3758248035966065	0.4437817939046451	0.8533998975816813	0.36266705051345877	-0.012901175310184365	0.9372711896183009	0.37419550224691056	-0.4306517187907084	1.0252543476399916	0.3459424661247664	-0.46361899962983816	0.8522459596787321	0.41775098444377246	-0.4588577090090208	0.8720950802987335	0.35500399215449296	-0.5086148315181744	1.1309724796630352	0.15765242703828783	0.4256752088967688	0.9175607524378302	0.16167188271973634	-0.011519239173770235	0.9781460574164267	0.18056854560432928	-0.4212529237635537	1.0405405018227283	0.1935020473704898	-0.44767622484251257	0.8460045873251885	0.14023376555632028	-0.45443582621757284	0.8878890962793637	0.1947825919182764	-0.4927512229227855	1.0975014467533333	0.27919701475611913	1.0032004283106877	0.9075323008741503	0.27366935373217527	1.2610609962085606	0.8319004952844382	0.26382783070000587	1.1342714064721697	0.750258084740217	0.44176989482281853	0.9146394885462504	0.8728548519855575	0.4451902039765996	0.6480175083595081	0.7954716102140296	0.30072534941814605	0.49083723787070604	0.6425736080210358	0.22094507472372987	0.4186657311074973	0.6179317566419666	0.21653700090650213	0.3944497878440758	0.6315329055824404	0.24062143676297823	0.3891751007224897	0.6066524934815953	0.1083009151314698	0.9169401704251084	0.8867728969610918	0.10518299230122838	0.6563169101763627	0.8253453163305347	0.20098256659873381	0.4861104527583693	0.6592392622657669	0.2710927994013843	0.41633458169856374	0.6028512311589007	0.2678225820303847	0.3896026647159967	0.5902382701557112	0.2258235015453991	0.38740690308872083	0.6297588149526189	
2	0.0357142857142857	0.3771005443054409	0.438799127912093	0.8614319784154455	0.3642644586992257	-0.015534140122468953	0.939770381853077	0.3746174488127917	-0.43128739100292907	1.0265709934975156	0.3456143148224926	-0.46353098819541166	0.8516554230120796	0.41886795738739835	-0.4550842539685797	0.8672085859519028	0.3557480316742984	-0.5098505283852532	1.1332682371041254	0.156698011513641	0.42454926947687255	0.9189967614539687	0.1614587830646673	-0.009939271592894539	0.9761611337432732	0.18086355848519026	-0.4208639705021997	1.0408527306530944	0.19319778604439267	-0.4471164109654608	0.8451058103594398	0.14039015209292355	-0.4534751498550479	0.8879507181654063	0.19444957769912452	-0.4922120583998888	1.097607407033004	0.2797814602676744	1.0049906207320725	0.9051073038598977	0.2734194967738953	1.2624014756505006	0.8312026812364162	0.2638709700583136	1.1347486387492203	0.7501131538305301	0.4417544471822562	0.9146276143997101	0.8727978080359211	0.44019747888749816	0.6439514670178372	0.8054345440846947	0.30486013848016813	0.48151575788851586	0.6556032483575318	0.22112593836616967	0.40648644223718666	0.6327331948221642	0.2188235375651662	0.3781934547988475	0.6394332036308723	0.24041740098128156	0.3761694742032168	0.6177273428098947	0.10819934945374945	0.9166385488554766	0.8866274632027389	0.10922831245032716	0.6538891246207101	0.8301686204826478	0.2025221724955615	0.47533186001553973	0.6694559021186555	0.2766663103582905	0.4005989182586299	0.6289331269185421	0.26894803185782584	0.3778884138711194	0.6054856772370731	0.22564958072840957	0.37198347995953623	0.6482391932252859	
3	0.0535714285714285	0.37797863153093836	0.43466652870072936	0.8681157014341664	0.3657197524268521	-0.017568899109113967	0.9421352471039024	0.37505695422484825	-0.431863866456153	1.0277552454839225	0.34549202673863466	-0.46368995633341625	0.8515465679358774	0.4194714406312527	-0.4530718011584031	0.8645965161591245	0.3563600857620613	-0.5108642174672013	1.1351536407017235	0.15593031928392606	0.42359035735084716	0.9203460385360718	0.1612908665185122	-0.008645253186133128	0.9747277088960128	0.18100030528103025	-0.4203981877044849	1.0408159996229436	0.19369501387228638	-0.44703866750061116	0.8448169410851571	0.14062726053175814	-0.4527336294608893	0.8876058530353219	0.19416183206028478	-0.49185558240631966	1.0977145455300468	0.28053395117628116	1.0064801111319905	0.9024034151153485	0.2735452503002094	1.263729555132092	0.8319455922509019	0.26387243616244516	1.1359401331384171	0.7499260152861804	0.441758968494656	0.9146217809606478	0.8726901228565546	0.4384554209113788	0.6408751892343839	0.8107545625452369	0.30722766179735056	0.4753507221658031	0.6649282445941563	0.2203806765288628	0.39821770530666695	0.6441374786538101	0.2202216935835863	0.3675481570456969	0.6476874196512044	0.2393255221518595	0.36621068504003773	0.6331332566654655	0.1081570317168487	0.9168021061569611	0.8866219402897789	0.11099669293751256	0.6510561604215536	0.8352666135360731	0.2046759395749862	0.4677515634924493	0.676998344737942	0.27968090889296526	0.389581195906308	0.6510300439370442	0.2695712898916543	0.36814793013437586	0.6228442829327592	0.22569428711930278	0.3617904690731391	0.6610916825911106	
4	0.0714285714285714	0.37850331988460967	0.43132406960756364	0.8735756534053518	0.36703767655942915	-0.019055226857141117	0.9443607611791238	0.3755085814667051	-0.4323873828373633	1.0288205690898706	0.34557998822426456	-0.46411741420327446	0.8519659354350891	0.4196789566687782	-0.4524053147466635	0.8637151318146996	0.3568507589195605	-0.5116735180538637	1.1366612430338556	0.1553302726922953	0.42280156346210573	0.9216063711438204	0.16116665000518945	-0.0076196121218529145	0.973809341581226	0.1809969830584363	-0.41987186400056803	1.040478853418805	0.19479112616013525	-0.44731215214635806	0.8449943202024766	0.1409058782555856	-0.45219062699239015	0.8869999570452516	0.19391736794851228	-0.49166536519347664	1.0978232770624392	0.28135848236510896	1.0076761024965433	0.8996561739977647	0.27396109424997467	1.2649709569291456	0.833699555635999	0.26384424297900244	1.1375483289999198	0.7497131502448593	0.4417777402493188	0.9146215498354437	0.8725526080065293	0.4393076030665757	0.6387426157663112	0.8123380268898501	0.3082158125934757	0.47187091656844565	0.67113680488781	0.21882705323616386	0.39337943496142225	0.6525575659512426	0.2206774486394567	0.3618071696471208	0.6557726335706242	0.23761408159241384	0.3591310183246976	0.6505688440236987	0.10816094118497248	0.9172811321790005	0.8867199167401002	0.11077311702978884	0.6480522700745801	0.8401287004278022	0.20696024246316175	0.4630575459014774	0.6822181553448133	0.2805863211731883	0.3826749034803585	0.66923265547492	0.26970152660813107	0.3604056047422951	0.6409259204632691	0.22587908106399093	0.35605103790713727	0.6693005013183445	
5	0.0892857142857142	0.3787188639779655	0.42871182396960583	0.8779364210965104	0.3682229759600477	-0.02004289795357206	0.9464418998870882	0.37596689352198737	-0.432864177833543	1.029780429806019	0.3458825856304552	-0.4648348719644136	0.852960066494679	0.41960802799341834	-0.4526697589015375	0.86402069381293	0.3572306556485747	-0.5122960494350847	1.137823596678548	0.15487879408190092	0.4221859787540611	0.9227755467368952	0.16108465044861744	-0.006844776568420918	0.973369590505494	0.1808717888839954	-0.4193012880206081	1.0398898367272071	0.19628351821390394	-0.4478060226011006	0.845494288411535	0.14118679264716777	-0.45182550440684743	0.8862784863513368	0.19371419831056222	-0.4916249770127585	1.0979340164481584	0.28215904871732844	1.0085857978118318	0.8971011198644098	0.27458150856204905	1.2660514033174728	0.8360348986998123	0.2637984044745879	1.1392756656938876	0.7494910398442587	0.44180504393554654	0.9146264826304773	0.8724060750449181	0.44209759837142404	0.637507687370782	0.8110912984127292	0.30821248409232654	0.47060512696232026	0.6748171373953941	0.21658283251242783	0.39149154584693535	0.6584064145288003	0.2201367824104724	0.3602637676656138	0.6631659253163187	0.2355513606206468	0.35476275914893984	0.6677327138599869	0.10819805712232593	0.9179259167710331	0.8868849810715919	0.10884256799416053	0.6451117060754765	0.8442442860948274	0.20889145578624252	0.46093778995500256	0.6854668991604569	0.2798322733667399	0.3792735298195394	0.6836316347926819	0.2693479124835178	0.3546858289314043	0.6583424230491036	0.22612542290838672	0.35398835393913697	0.6738498676752396	
6	0.1071428571428571	0.3786695184225165	0.4267698651238652	0.8813225912751494	0.36928039549179903	-0.020581686985428616	0.9483736390361422	0.37642645337432	-0.4333004891316752	1.030648293123026	0.34652318321109665	-0.4661853124130125	0.8550197126208925	0.41939912800831936	-0.4533298309356143	0.8647899007593117	0.35751038045088285	-0.5127494309007087	1.138673254213826	0.15455680579589515	0.4217466941701264	0.9238513527749774	0.16104338477271457	-0.006303174694203606	0.9733720143753974	0.18064291982429448	-0.4187027483947637	1.039097494234679	0.19797364860041727	-0.44839815198625027	0.8461438431659101	0.14148782952469446	-0.45148014666839154	0.8853801000128717	0.19355033609318975	-0.49171798811556394	1.0980471785051824	0.2828518545922925	1.009151363877553	0.8953819084914689	0.2753662890550486	1.266770863496548	0.8384706522209067	0.26375919848119966	1.1405131526423269	0.749295365692225	0.4418288523909236	0.9146387595828007	0.8722833385964286	0.44609628654375366	0.6372587167470375	0.8084895795385412	0.30819394318820775	0.47055314594560943	0.6775704059561496	0.21372176542035326	0.39244900954672574	0.6619010795211999	0.21811751880262376	0.3625719854624241	0.6684668372675553	0.23363301933206912	0.35231334074966675	0.6821511228807637	0.1082513688688945	0.9186162931273498	0.8870949816841716	0.10536652414514533	0.6425020503271297	0.8459981105000305	0.20923996082746085	0.46124116478852706	0.687565069933447	0.2777996622102167	0.37856784209511496	0.6946733238653053	0.2682882940299398	0.351382002448661	0.6729139694106553	0.2263470823893659	0.35461261568572633	0.676362397316068	
